<?xml version="1.0" encoding="iso-8859-1"?>
<svg class="blockly-fake-item" width="200"><g><g class="blocklyDraggable"><path class="blocklyPath" fill="#5ba65b" d="m 0,8 A 8,8 0 0,1 8,0 H 148.99856567382812 v 25 v 25 v 5 c 0,10 -8,-8 -8,7.5 s 8,-2.5 8,7.5 v 5 H 112.21903991699219 l -6,4 -3,0 -6,-4 h -7 a 8,8 0 0,0 -8,8 v 9 a 8,8 0 0,0 8,8 H 148.99856567382812 v 10 H 8 a 8,8 0 0,1 -8,-8 z"></path><g transform="translate(10, 18)"><image height="15px" width="15px" y="-12" xmlns:xlink="http://www.w3.org/1999/xlink" xlink:href="https://www.gstatic.com/codesite/ph/images/star_on.gif"></image></g><text class="blocklyText" transform="translate(35, 18)">Конфернеция</text><text class="blocklyText" transform="translate(10, 68)">Питание</text><text class="blocklyText" transform="translate(10, 93)">Спикеры</text></g></g></svg>